<svg width="87" height="59" viewBox="0 0 87 59" fill="none" xmlns="http://www.w3.org/2000/svg">
<g clip-path="url(#clip0_20_3)">
<path d="M9.30859 30.0926C8.98307 30.06 8.67383 29.9542 8.38086 29.7752C8.08789 29.5962 7.82747 29.3683 7.59961 29.0916C7.38802 28.7986 7.21712 28.4813 7.08691 28.1395C6.95671 27.7814 6.8916 27.4152 6.8916 27.0408C6.8916 26.5688 7.00553 26.1945 7.2334 25.9178C7.47754 25.6411 7.78678 25.5027 8.16113 25.5027C8.37272 25.5027 8.71452 25.5272 9.18652 25.576C9.65853 25.6248 10.2119 25.6899 10.8467 25.7713C11.4977 25.8364 12.1976 25.9178 12.9463 26.0154C13.7113 26.0968 14.4844 26.1782 15.2656 26.2596C16.0632 26.3247 16.8444 26.3817 17.6094 26.4305C18.3743 26.4793 19.0905 26.5037 19.7578 26.5037C20.1322 26.5037 20.4658 26.463 20.7588 26.3817C21.068 26.284 21.3854 26.1375 21.7109 25.9422C22.2806 25.5353 22.9316 25.2179 23.6641 24.9901C24.4128 24.7622 25.194 24.6483 26.0078 24.6483C26.8053 24.6483 27.6517 24.7947 28.5469 25.0877C29.4421 25.3644 30.264 25.7225 31.0127 26.1619C31.7777 26.5851 32.4043 27.0571 32.8926 27.5779C33.3971 28.0988 33.6494 28.5871 33.6494 29.0428C33.6494 29.4009 33.568 29.702 33.4053 29.9461C33.2588 30.1902 32.9821 30.3937 32.5752 30.5565C32.1683 30.7029 31.6068 30.8332 30.8906 30.9471C30.1908 31.0447 29.2956 31.1261 28.2051 31.1912C27.8307 31.2238 27.554 31.3377 27.375 31.533C27.196 31.7121 27.1064 31.9643 27.1064 32.2899C27.1064 32.5828 27.1797 33.0874 27.3262 33.8035C27.4889 34.5034 27.6598 35.3742 27.8389 36.4158C28.0342 37.4412 28.2051 38.6212 28.3516 39.9559C28.5143 41.2742 28.5957 42.6902 28.5957 44.2039C28.5957 45.7501 28.376 47.158 27.9365 48.4276C27.5133 49.6808 26.903 50.755 26.1055 51.6502C25.3079 52.5454 24.3477 53.229 23.2246 53.701C22.1016 54.1893 20.8483 54.4334 19.4648 54.4334C18.2441 54.4334 17.056 54.2544 15.9004 53.8963C14.7611 53.5382 13.6868 53.0418 12.6777 52.407C11.6686 51.7723 10.7409 51.0073 9.89453 50.1121C9.06445 49.2169 8.34831 48.2322 7.74609 47.158C7.14388 46.0838 6.67188 44.9363 6.33008 43.7156C6.00456 42.4949 5.8418 41.2335 5.8418 39.9315C5.8418 39.3292 6.02083 38.8328 6.37891 38.4422C6.73698 38.0353 7.19271 37.8318 7.74609 37.8318C8.25065 37.8318 8.73079 37.8888 9.18652 38.0027C9.64225 38.1167 10.0329 38.2794 10.3584 38.491C10.7002 38.7026 10.9688 38.9468 11.1641 39.2234C11.3594 39.5001 11.457 39.7931 11.457 40.1024C11.457 41.4207 11.693 42.6821 12.165 43.8865C12.6533 45.091 13.3044 46.1489 14.1182 47.0604C14.932 47.9718 15.876 48.6961 16.9502 49.2332C18.0244 49.7703 19.1556 50.0389 20.3438 50.0389C21.4017 50.0389 22.2155 49.6483 22.7852 48.867C23.3711 48.0695 23.6641 46.9302 23.6641 45.449C23.6641 43.5773 23.5094 41.5916 23.2002 39.492C22.891 37.3761 22.4271 35.0731 21.8086 32.5828C21.5645 31.7039 21.0762 31.2401 20.3438 31.1912C18.3906 31.0936 16.4945 30.9552 14.6553 30.7762C12.8161 30.5971 11.0339 30.3693 9.30859 30.0926ZM36.9697 51.992C36.7093 48.9972 36.3675 46.035 35.9443 43.1053C35.5374 40.1756 35.041 37.2215 34.4551 34.243C34.4062 34.0477 34.3411 33.893 34.2598 33.7791C34.1947 33.6489 34.097 33.5838 33.9668 33.5838C33.8691 33.5838 33.7552 33.5919 33.625 33.6082C33.5111 33.6245 33.389 33.6326 33.2588 33.6326C32.6403 33.6326 32.1602 33.478 31.8184 33.1688C31.4766 32.8595 31.3057 32.4689 31.3057 31.9969C31.3057 31.4598 31.5254 30.9389 31.9648 30.4344C32.4206 29.9298 33.0146 29.4578 33.7471 29.0184C34.4795 28.5626 35.3177 28.1476 36.2617 27.7733C37.2057 27.3989 38.1742 27.0815 39.167 26.8211C40.1761 26.5444 41.1689 26.3328 42.1455 26.1863C43.1221 26.0236 44.0091 25.9422 44.8066 25.9422C46.2552 25.9422 47.5003 26.1212 48.542 26.4793C49.5999 26.8374 50.4626 27.3094 51.1299 27.8953C51.8135 28.4813 52.3099 29.1567 52.6191 29.9217C52.9447 30.6867 53.1074 31.4761 53.1074 32.2899C53.1074 33.1037 52.9284 33.9988 52.5703 34.9754C52.2285 35.9357 51.6426 36.8553 50.8125 37.7342C50.7148 37.8481 50.6497 37.9458 50.6172 38.0272C50.5846 38.0923 50.5684 38.1655 50.5684 38.2469C50.5684 38.3934 50.7311 38.491 51.0566 38.5399C52.0007 38.6212 52.9121 38.8491 53.791 39.2234C54.6862 39.5978 55.4674 40.0861 56.1348 40.6883C56.8021 41.2742 57.3392 41.966 57.7461 42.7635C58.153 43.561 58.3564 44.4074 58.3564 45.3026C58.3564 46.5558 58.1123 47.6544 57.624 48.5984C57.152 49.5262 56.4928 50.2993 55.6465 50.9178C54.8001 51.5363 53.791 51.992 52.6191 52.285C51.4635 52.5942 50.2103 52.7488 48.8594 52.7488C47.8014 52.7488 46.7354 52.6512 45.6611 52.4559C44.6032 52.2768 43.5697 52.0408 42.5605 51.7479C42.4954 51.7153 42.3978 51.699 42.2676 51.699C41.9909 51.699 41.7712 51.8618 41.6084 52.1873C41.3317 52.7407 40.9329 53.172 40.4121 53.4813C39.9076 53.7905 39.3949 53.9451 38.874 53.9451C38.402 53.9451 37.987 53.7905 37.6289 53.4813C37.2708 53.1883 37.0511 52.6919 36.9697 51.992ZM41.7061 42.6902C41.348 42.8205 41.1689 43.0727 41.1689 43.4471C41.1689 43.4959 41.1852 43.6749 41.2178 43.9842C41.2666 44.2934 41.3236 44.6271 41.3887 44.9852C41.4538 45.4083 41.527 45.8641 41.6084 46.3524C41.6572 46.7755 41.877 47.0359 42.2676 47.1336C42.7721 47.2801 43.3255 47.4347 43.9277 47.5975C44.5299 47.744 45.1566 47.8823 45.8076 48.0125C46.4587 48.1427 47.1178 48.2485 47.7852 48.3299C48.4525 48.4113 49.0954 48.452 49.7139 48.452C50.1859 48.452 50.6416 48.4031 51.0811 48.3055C51.5205 48.1915 51.9111 48.0207 52.2529 47.7928C52.5947 47.5649 52.8633 47.2801 53.0586 46.9383C53.2702 46.5802 53.376 46.1489 53.376 45.6443C53.376 44.9119 53.1725 44.2934 52.7656 43.7889C52.3587 43.2843 51.846 42.8774 51.2275 42.5682C50.609 42.2589 49.9336 42.0392 49.2012 41.909C48.4688 41.7625 47.777 41.6893 47.126 41.6893C46.2471 41.6893 45.3519 41.7869 44.4404 41.9822C43.5452 42.1776 42.6338 42.4136 41.7061 42.6902ZM39.8262 31.0447C39.6471 31.0936 39.5088 31.1505 39.4111 31.2156C39.3135 31.2807 39.2646 31.4028 39.2646 31.5818C39.2646 31.7609 39.2972 32.0864 39.3623 32.5584C39.4437 33.0141 39.5332 33.535 39.6309 34.1209C39.7448 34.7068 39.8587 35.3172 39.9727 35.952C40.1029 36.5705 40.2168 37.132 40.3145 37.6365C40.347 37.9458 40.4121 38.1574 40.5098 38.2713C40.6237 38.3852 40.762 38.4422 40.9248 38.4422C41.0225 38.4422 41.1445 38.4259 41.291 38.3934C41.4538 38.3445 41.6654 38.2794 41.9258 38.1981C42.5931 37.9865 43.293 37.7505 44.0254 37.4901C44.7741 37.2134 45.4495 36.8878 46.0518 36.5135C46.6702 36.1391 47.1748 35.6997 47.5654 35.1951C47.9723 34.6743 48.1758 34.0721 48.1758 33.3885C48.1758 32.8514 48.0618 32.4038 47.834 32.0457C47.6061 31.6714 47.2887 31.3703 46.8818 31.1424C46.4749 30.8983 46.0029 30.7274 45.4658 30.6297C44.9287 30.532 44.3428 30.4832 43.708 30.4832C43.057 30.4832 42.3978 30.532 41.7305 30.6297C41.0794 30.7274 40.4447 30.8657 39.8262 31.0447ZM54.4502 28.9451C53.8805 28.522 53.5957 28.0174 53.5957 27.4315C53.5957 27.2036 53.6364 26.9839 53.7178 26.7723C53.7992 26.5444 53.9456 26.3165 54.1572 26.0887L54.8652 25.283C55.2884 24.7622 55.7848 24.5018 56.3545 24.5018C56.5498 24.5018 56.7614 24.5425 56.9893 24.6238C57.2008 24.6889 57.4206 24.811 57.6484 24.9901C59.9271 26.699 62.1162 28.4731 64.2158 30.3123C66.3317 32.1352 68.3743 34.129 70.3438 36.2938C70.653 36.5867 70.9215 36.7332 71.1494 36.7332C71.5889 36.7332 71.8574 36.4402 71.9551 35.8543L74.1035 27.285C74.3477 26.3247 74.8441 25.8445 75.5928 25.8445C75.7555 25.8445 75.9264 25.869 76.1055 25.9178C76.3008 25.9666 76.4961 26.0561 76.6914 26.1863L77.5459 26.6502C78.3434 27.0897 78.7422 27.6837 78.7422 28.4324C78.7422 28.6766 78.6934 28.9451 78.5957 29.2381C78.0423 31.2726 77.4808 33.421 76.9111 35.6834C76.3577 37.9295 75.7881 40.2407 75.2021 42.617C74.6162 44.977 74.014 47.3696 73.3955 49.7947C72.777 52.2199 72.1423 54.6206 71.4912 56.9969C71.2308 57.9897 70.6693 58.4861 69.8066 58.4861C69.5625 58.4861 69.2939 58.4373 69.001 58.3397L68.1953 58.0955C67.6908 57.9653 67.3245 57.7537 67.0967 57.4608C66.8688 57.1678 66.7549 56.8097 66.7549 56.3865C66.7549 56.2889 66.7549 56.1749 66.7549 56.0447C66.7712 55.9145 66.8037 55.7843 66.8525 55.6541C67.3734 53.7173 67.8861 51.7967 68.3906 49.8924C68.8952 47.9881 69.3835 46.0757 69.8555 44.1551C69.888 44.0412 69.9124 43.9435 69.9287 43.8621C69.945 43.7807 69.9531 43.6912 69.9531 43.5936C69.9531 43.3983 69.9043 43.2111 69.8066 43.032C69.7253 42.853 69.6113 42.674 69.4648 42.4949C67.1699 39.9559 64.7692 37.5714 62.2627 35.3416C59.7725 33.1118 57.1683 30.9796 54.4502 28.9451Z" fill="#0276C3"/>
<circle cx="45" cy="7" r="6" fill="#0276C3"/>
<path d="M24.1456 11.2388C24.1842 13.1993 26.486 15.0348 30.5445 16.3417C34.6031 17.6486 40.086 18.3196 45.787 18.2073C51.4881 18.095 56.9403 17.2085 60.9442 15.7429C64.9481 14.2772 67.1758 12.3524 67.1372 10.3919L54.8972 10.6331C54.9139 11.4772 53.9547 12.306 52.2306 12.9371C50.5066 13.5682 48.1589 13.9499 45.7041 13.9983C43.2493 14.0466 40.8884 13.7577 39.1409 13.1949C37.3933 12.6322 36.4022 11.8419 36.3855 10.9977L24.1456 11.2388Z" fill="#0276C3"/>
</g>
<defs>
<clipPath id="clip0_20_3">
<rect width="87" height="59" fill="white"/>
</clipPath>
</defs>
</svg>
